# xmcd
#
# Track frame offsets: 
#        150
#        17462
#        41340
#        56507
#        73031
#        84271
#        112321
#        129234
#        141307
#        151289
#        174701
#
# Disc length: 2555 seconds
#
# Revision: 10
# Processed by: cddbd v1.5.2PL0 Copyright (c) Steve Scherf et al.
# Submitted via: ExactAudioCopy v0.90b4
#
DISCID=8e09f90b
DTITLE=Bryan Ferry - Dylanesque
DYEAR=2007
DGENRE=Rock
TTITLE0=Just Like Tom Thumb's Blues
TTITLE1=Simple Twist Of Fate
TTITLE2=Make You Feel My Love
TTITLE3=The Times They Are A-Changin'
TTITLE4=All I Really Wanna Do
TTITLE5=Knockin' On Heaven's Door
TTITLE6=Positively 4th Street
TTITLE7=If Not For You
TTITLE8=Baby Let Me Follow You Down
TTITLE9=Gates Of Eden
TTITLE10=All Along The Watchtower
EXTD=Location:  - UPC: 094638389125 - Catalogue number: CDV3026 - Label:
EXTD=Virgin - ASIN: B000LPR0SE - Rel
EXTT0=
EXTT1=
EXTT2=
EXTT3=
EXTT4=
EXTT5=
EXTT6=
EXTT7=
EXTT8=
EXTT9=
EXTT10=
PLAYORDER=
